PathFileType	4	(X/Y/Z)	../Python\walking\Walking16\task.trc
DataRate	CameraRate	NumFrames	NumMarkers	Units	OrigDataRate	OrigDataStartFrame	OrigNumFrames
200.000000	200.000000	6	30	mm	200.000000	30	452
Frame#	Time	C7			RBAK			CLAV			STRN			RASI			LASI			PE01			RTH1			RTH2			RTH3			RD5M			RTOE			LTH2			LTH3			LTB2			LTB3			LHEE			LTOE			LD5M			LTB1			RTB2			RHEE			RTB3			RTB1			LTH1			LPSI			PE03			PE02			RPSI			T10			
		X1	Y1	Z1	X2	Y2	Z2	X3	Y3	Z3	X4	Y4	Z4	X5	Y5	Z5	X6	Y6	Z6	X7	Y7	Z7	X8	Y8	Z8	X9	Y9	Z9	X10	Y10	Z10	X11	Y11	Z11	X12	Y12	Z12	X13	Y13	Z13	X14	Y14	Z14	X15	Y15	Z15	X16	Y16	Z16	X17	Y17	Z17	X18	Y18	Z18	X19	Y19	Z19	X20	Y20	Z20	X21	Y21	Z21	X22	Y22	Z22	X23	Y23	Z23	X24	Y24	Z24	X25	Y25	Z25	X26	Y26	Z26	X27	Y27	Z27	X28	Y28	Z28	X29	Y29	Z29	X30	Y30	Z30	

31	0.29	-1116.3359375	1333.996215820313	165.9326477050782	-1168.479858398438	1228.89990234375	264.8776855468751	-996.7256469726567	1235.36474609375	163.4234619140626	-937.1162719726567	1051.111206054688	163.5864868164063	-972.8748168945317	862.9379272460942	288.6208801269532	-970.604858398438	840.5935668945317	63.39101028442386	-1168.314331054688	935.108764648438	180.8621673583985	-967.5852050781255	576.0551757812502	324.869842529297	-926.392700195313	510.476989746094	305.3475341796876	-917.1875000000005	570.860778808594	316.2157287597657	-829.2250366210942	14.41955566406251	271.0851135253907	-792.4877929687505	29.6870460510254	216.6995391845704	-1091.602294921875	525.3094482421877	34.25782775878908	-1015.907653808594	553.084411621094	27.93765068054201	-1284.217895507813	286.2707519531251	61.09857177734378	-1236.441650390625	275.4144287109376	56.8127250671387	-1427.67578125	201.2307739257814	132.7321929931641	-1341.201049804688	46.45576858520509	107.6327514648438	-1374.73046875	66.23824310302737	69.679557800293	-1222.978515625	334.5670471191407	45.21092987060548	-924.1916503906255	249.0632934570314	292.1358337402345	-979.7729492187505	26.44275093078615	206.3620147705079	-893.8329467773442	214.0565338134767	273.0625305175782	-882.2766723632817	291.531707763672	281.4529724121095	-1061.602661132813	578.3315429687502	22.33910751342774	-1170.5732421875	896.5072631835942	140.9848785400391	-1182.598510742188	872.1882324218755	160.286361694336	-1182.372192382813	876.932250976563	210.7420043945314	-1169.78466796875	902.3538208007817	230.6534271240236	-1149.687133789063	1034.364379882813	168.0085144042969	
32	0.295	-1109.2412109375	1335.402099609375	166.2590942382813	-1160.710205078125	1230.504028320313	265.8179321289064	-989.7153320312505	1236.790405273438	163.1221160888672	-930.2304687500005	1052.404052734375	163.1819000244141	-966.1354980468755	863.9985961914067	289.1125488281251	-964.3053588867192	841.746948242188	63.82718276977542	-1161.691162109375	936.616577148438	181.3892822265626	-964.109497070313	576.3519287109377	325.1120910644532	-923.6714477539067	510.303649902344	305.6895446777345	-913.7663574218755	570.5451660156252	316.6990051269532	-829.2624511718755	14.42040157318116	271.0617980957032	-792.503051757813	29.66686058044435	216.6476898193361	-1080.218505859375	525.2886962890627	34.24555587768556	-1005.194152832032	554.3222656250002	27.59704017639162	-1270.382202148438	287.9602355957032	61.300651550293	-1222.6904296875	276.7333984375001	57.08069610595706	-1414.821533203125	203.6832733154298	133.6100006103516	-1327.442016601563	49.15680694580081	106.4613342285157	-1361.497680664063	69.66496276855472	69.10400390625003	-1208.767822265625	335.7214660644532	45.2296829223633	-922.9688110351567	249.0033569335939	292.2739257812501	-979.811645507813	26.44905662536623	206.3438720703126	-892.837280273438	213.7853088378907	273.2805480957032	-880.7761230468755	291.1778564453126	281.7008666992189	-1051.219970703125	578.8254394531252	22.28264427185059	-1163.957885742188	897.9187622070317	141.6340484619141	-1175.975463867188	873.6935424804692	160.841537475586	-1175.740356445313	878.4568481445317	211.2962493896486	-1163.033813476563	904.056762695313	231.3434295654298	-1142.72607421875	1035.85546875	168.8803710937501	
33	0.3	-1102.168579101563	1336.815673828125	166.5635528564454	-1152.966674804688	1232.132202148438	266.7456970214845	-982.7402954101567	1238.2109375	162.7945404052735	-923.402954101563	1053.685424804688	162.7482299804688	-959.4377441406255	865.0237426757817	289.5752868652345	-958.087036132813	842.9391479492192	64.20558166503909	-1155.099487304688	938.1269531250005	181.9685363769532	-960.5932006835942	576.696228027344	325.3286437988282	-920.8695678710942	510.2180786132815	305.9728393554689	-910.3234252929692	570.3047485351565	317.0977172851564	-829.295288085938	14.41122817993165	271.0457458496095	-792.5200195312505	29.63743400573732	216.6047973632814	-1068.879272460938	525.450378417969	34.28408813476564	-994.5993652343755	555.7632446289065	27.18020248413087	-1256.33740234375	289.591278076172	61.53610610961917	-1208.708984375	278.0496826171876	57.35734939575198	-1401.659790039063	205.5991516113282	134.4236297607422	-1312.729736328125	51.77551651000979	105.3495101928712	-1347.397094726563	72.79387664794925	68.52153778076175	-1194.434326171875	336.9296875000001	45.30756759643556	-921.7545776367192	248.9591522216798	292.3883361816407	-979.846313476563	26.46860694885255	206.3314819335939	-891.8596191406255	213.5330047607423	273.4580993652345	-879.3234863281255	290.8493041992189	281.8988037109376	-1040.893432617188	579.4763183593752	22.22163009643555	-1157.41015625	899.3477172851567	142.3271636962891	-1169.41845703125	875.220092773438	161.4293518066407	-1169.157958984375	879.9812011718755	211.8844146728517	-1156.332763671875	905.7418823242192	232.0566864013673	-1135.813842773438	1037.359497070313	169.7737579345704	
34	0.305	-1095.119140625	1338.23193359375	166.8457489013672	-1145.25244140625	1233.778564453125	267.658172607422	-975.8010864257817	1239.62158203125	162.4426422119141	-916.6332397460942	1054.9521484375	162.2884674072266	-952.7792358398442	866.0136108398442	290.0093383789064	-951.9430541992192	844.1668090820317	64.52894592285159	-1148.53564453125	939.6350708007817	182.5975189208985	-957.0076293945317	577.0901489257815	325.5195922851564	-917.960327148438	510.2181701660159	306.1981811523439	-906.8288574218755	570.1419677734377	317.4044494628907	-829.3226928710942	14.3962688446045	271.0366821289064	-792.5356445312505	29.60011672973634	216.5698242187501	-1057.579345703125	525.791442871094	34.37578582763673	-984.1082153320317	557.4040527343752	26.70137977600099	-1242.104736328125	291.1464843750001	61.80752563476565	-1194.518920898438	279.353485107422	57.63429260253909	-1388.192016601563	206.9701385498048	135.1668548583985	-1297.15234375	54.2637748718262	104.3232421875001	-1332.482788085938	75.58378601074222	67.94834136962893	-1180.006103515625	338.1846313476564	45.44909667968751	-920.545776367188	248.9295654296876	292.4769592285157	-979.8762817382817	26.50172805786134	206.3234252929689	-890.8945922851567	213.2986755371095	273.5925903320314	-877.9096679687505	290.5462951660157	282.0442504882814	-1030.618286132813	580.2825927734377	22.16275787353516	-1150.925903320313	900.7892456054692	143.0612487792969	-1162.923095703125	876.7624511718755	162.0476837158204	-1162.621459960938	881.500610351563	212.5043792724611	-1149.678466796875	907.404174804688	232.7913513183595	-1128.94921875	1038.870849609375	170.6859283447266	
35	0.31	-1088.09375	1339.645385742188	167.1055603027344	-1137.570678710938	1235.4375	268.5527343750001	-968.898315429688	1241.017822265625	162.0684356689454	-909.920532226563	1056.201049804688	161.8059082031251	-946.1577758789067	866.968872070313	290.4152221679689	-945.8661499023442	845.4267578125005	64.80103302001956	-1141.99609375	941.1360473632817	183.2733917236329	-953.331909179688	577.5327758789065	325.6839599609376	-914.9296875000005	510.295593261719	306.3668823242189	-903.260375976563	570.053405761719	317.6140441894532	-829.3444824218755	14.37938976287843	271.0335693359376	-792.5478515625005	29.55686569213869	216.5412445068361	-1046.308959960938	526.3051757812502	34.52075195312501	-973.6979370117192	559.2351074218752	26.18123054504396	-1227.703002929688	292.6046752929689	62.11349868774417	-1180.1396484375	280.6315002441407	57.9047775268555	-1374.418579101563	207.7930450439454	135.8348999023438	-1280.796020507813	56.57820510864261	103.4009170532227	-1316.812133789063	78.001579284668	67.39830017089847	-1165.5068359375	339.4718322753907	45.65376281738283	-919.3418579101567	248.9131469726564	292.5374450683595	-979.9013061523442	26.54819679260255	206.3180694580079	-889.938842773438	213.0810394287111	273.6825256347657	-876.527709960938	290.2683105468751	282.1358947753907	-1020.3857421875	581.2393188476565	22.11274528503419	-1144.500244140625	902.2382202148442	143.8328399658204	-1156.484130859375	878.314819335938	162.6939697265626	-1156.12744140625	883.0101928710942	213.153533935547	-1143.067749023438	909.0386352539067	233.5454254150392	-1122.131225585938	1040.384643554688	171.6139831542969	
36	0.315	-1081.093505859375	1341.050903320313	167.343002319336	-1129.924194335938	1237.102905273438	269.4270324707032	-962.0322875976567	1242.3955078125	161.6740417480469	-903.263793945313	1057.428955078125	161.3040313720704	-939.5709838867192	867.8906860351567	290.7937622070314	-939.8483276367192	846.7155761718755	65.026481628418	-1135.477905273438	942.6248168945317	183.9928436279297	-949.553588867188	578.0201416015627	325.8199157714845	-911.7758789062505	510.4373168945315	306.4807739257814	-899.6040039062505	570.030456542969	317.7236938476564	-829.360961914063	14.36390209197999	271.0348205566407	-792.5554809570317	29.5099277496338	216.5172576904298	-1035.055786132813	526.981872558594	34.71710205078126	-963.340942382813	561.2416992187502	25.64477729797365	-1213.149780273438	293.9419860839845	62.44918441772464	-1165.588745117188	281.867645263672	58.16413497924808	-1360.338500976563	208.0693969726564	136.4248199462891	-1263.743286132813	58.68134689331058	102.5931549072266	-1300.44482421875	80.02249145507815	66.88255310058597	-1150.95654296875	340.7711181640626	45.91658782958986	-918.1443481445317	248.9083404541017	292.5675659179689	-979.9216918945317	26.60734367370607	206.3136138916017	-888.9907226562505	212.8787078857423	273.7273254394532	-875.1723632812505	290.0142211914064	282.1732788085939	-1010.183837890625	582.3386230468752	22.07811164855958	-1138.12841796875	903.6893920898442	144.6380157470704	-1150.09619140625	879.8712768554692	163.3652496337891	-1149.672119140625	884.5046386718755	213.8288879394532	-1136.496826171875	910.6405639648442	234.3166351318361	-1115.358154296875	1041.895141601563	172.5549926757813	
